<?xml version="1.0" encoding="UTF-8" standalone="no"?>
<!DOCTYPE svg PUBLIC "-//W3C//DTD SVG 1.1//EN" "http://www.w3.org/Graphics/SVG/1.1/DTD/svg11.dtd">
<svg width="100%" height="100%" viewBox="0 0 2048 2048" version="1.1" xmlns="http://www.w3.org/2000/svg" xmlns:xlink="http://www.w3.org/1999/xlink" xml:space="preserve" style="fill-rule:evenodd;clip-rule:evenodd;stroke-linejoin:round;stroke-miterlimit:1.41421;">
    <g transform="matrix(1.09489,0,0,1.08056,-96.8217,-24.6864)">
        <g id="Drop">
            <path d="M1472.58,973.191C1606.81,1251.63 1640.83,1884.02 1026.91,1882.25C413,1880.48 421.02,1240.61 578.918,971.433C609.107,919.969 1026.47,51.499 1026.47,51.499C1026.47,51.499 1450.75,927.912 1472.58,973.191Z" style="fill:url(#_Linear1);"/>
        </g>
    </g>
    <g id="Cat" transform="matrix(1.08873,0,0,1.08873,-90.5796,-142.869)">
        <g transform="matrix(0.943063,0,0,0.943063,85.828,34.2919)">
            <path d="M783.135,799.137C783.135,799.137 799.935,900.82 858.292,935.304C858.292,986.588 881.282,1049.37 918.418,1084.74C550.635,1608.2 579.493,1677.81 579.045,1701.99C1191.42,1612.38 1119.95,1298.75 1174.16,1296.32C1166.15,1732.42 596.574,1709.24 606.936,1784.5C692.926,1892.44 872.937,1950.79 993.344,1948.94C1155.69,1946.44 1318.84,1875.25 1382.38,1782.37C1382.38,1720.48 1111.08,1796.42 1255.74,1412.56C1298,1300.41 1288.29,1181.11 1244.96,1099.77C1201.64,1018.42 1214.9,999.851 1214.9,952.989C1214.9,906.126 1206.67,860.147 1129.74,777.032C1116.48,724.863 1093.87,674.61 1042.21,632.022C1012.4,685.161 1013.38,734.358 1004.53,781.221C991.271,798.905 930.797,828.315 930.797,828.315C930.797,828.315 816.735,780.568 783.135,799.137Z" style="fill:white;"/>
        </g>
        <g transform="matrix(1.06079,-0.0940936,0.0940936,1.06079,-123.211,122.24)">
            <path d="M939.203,840.996C939.203,840.996 967.739,859.421 987.977,856.183C1008.22,852.945 1016.31,839.183 1004.17,828.659C992.025,818.136 947.298,832.092 939.203,840.996Z" style="fill:rgb(0,124,255);"/>
        </g>
        <g transform="matrix(-0.658015,0.818927,0.818927,0.658015,1065.93,-490.327)">
            <path d="M939.203,840.996C939.203,840.996 967.739,859.421 987.977,856.183C1008.22,852.945 1016.31,839.183 1004.17,828.659C992.025,818.136 947.298,832.092 939.203,840.996Z" style="fill:rgb(0,124,255);"/>
        </g>
    </g>
    <defs>
        <linearGradient id="_Linear1" x1="0" y1="0" x2="1" y2="0" gradientUnits="userSpaceOnUse" gradientTransform="matrix(1.10356e-13,1826.15,-1802.25,1.11819e-13,1031.35,56.845)"><stop offset="0" style="stop-color:rgb(0,185,255);stop-opacity:1"/><stop offset="0.53" style="stop-color:rgb(0,141,255);stop-opacity:1"/><stop offset="1" style="stop-color:rgb(0,124,255);stop-opacity:1"/></linearGradient>
    </defs>
</svg>
