<?xml version="1.0" encoding="UTF-8" standalone="no"?><!DOCTYPE svg PUBLIC "-//W3C//DTD SVG 1.1//EN" "http://www.w3.org/Graphics/SVG/1.1/DTD/svg11.dtd"><svg width="100%" height="100%" viewBox="0 0 2048 2048" version="1.1" xmlns="http://www.w3.org/2000/svg" xmlns:xlink="http://www.w3.org/1999/xlink" xml:space="preserve" style="fill-rule:evenodd;clip-rule:evenodd;stroke-linejoin:round;stroke-miterlimit:1.41421;"><g id="Drop"><path d="M1515.49,1026.91c146.969,300.87 184.217,984.206 -487.953,982.296c-672.17,-1.911 -663.389,-693.334 -490.507,-984.195c33.053,-55.611 490.02,-994.048 490.02,-994.048c0,0 464.54,947.02 488.44,995.947Z" style="fill:url(#_Linear1);"/></g><g id="Cat"><path d="M794.704,684.512c0,0 18.29,110.706 81.826,148.25c0,55.834 25.029,124.183 65.461,162.69c-400.417,569.906 -368.998,645.701 -369.485,672.019c666.714,-97.558 588.902,-439.019 647.916,-441.658c-8.713,474.795 -628.833,449.55 -617.55,531.492c93.619,117.52 289.602,181.044 420.693,179.027c176.751,-2.719 354.372,-80.229 423.557,-181.341c0,-67.386 -295.372,15.298 -137.876,-402.633c46.01,-122.09 35.435,-251.976 -11.735,-340.541c-47.17,-88.565 -32.73,-108.781 -32.73,-159.802c0,-51.021 -8.962,-101.079 -92.714,-191.569c-14.44,-56.797 -39.062,-111.509 -95.303,-157.877c-32.453,57.854 -31.39,111.417 -41.017,162.438c-14.44,19.253 -80.279,51.273 -80.279,51.273c0,0 -124.183,-51.984 -160.764,-31.768Z" style="fill:#fff;"/><path d="M942.294,843.895c0,0 36.948,19.463 61.381,13.299c24.432,-6.163 32.851,-23.896 16.837,-35.465c-16.014,-11.568 -69.271,10.381 -78.218,22.166Z" style="fill:#007cff;"/><path d="M1155.2,735.622c0,0 -4.258,40.975 -22.693,57.648c-18.435,16.674 -37.595,13.873 -38.32,-5.601c-0.726,-19.474 46.445,-51.158 61.013,-52.047Z" style="fill:#007cff;"/></g><defs><linearGradient id="_Linear1" x1="0" y1="0" x2="1" y2="0" gradientUnits="userSpaceOnUse" gradientTransform="matrix(1.20828e-13,1973.27,-1973.27,1.20828e-13,1032.39,36.7383)"><stop offset="0" style="stop-color:#00b9ff;stop-opacity:1"/><stop offset="0.53" style="stop-color:#008dff;stop-opacity:1"/><stop offset="1" style="stop-color:#007cff;stop-opacity:1"/></linearGradient></defs></svg>